<svg width="504" height="832" viewBox="0 0 504 832" fill="none" xmlns="http://www.w3.org/2000/svg">
<path d="M431.304 108.579C386.851 66.9788 391.459 43.2175 388.661 1H0V832H379.726C395.704 743.432 420.528 752.12 455.265 732.54C443.08 683.357 459.502 682.165 476.384 665.962C450.669 602.745 474.332 600.052 490.192 572.592C479.769 546.364 486.616 537.298 499.533 521.441C483.416 482.825 494.057 481.535 504 469.884C478.636 446.199 486.795 436.951 496.284 419.545C441.448 339.459 460.743 303.399 478.008 236.051C430.89 210.276 438.156 189.185 444.706 152.829C425.226 143.288 428.709 130.113 431.304 108.579Z" fill="#91B1D8"/>
<path d="M413.562 97.2595C388.564 59.8611 387.85 38.7219 387.969 1H0V832H379.031C384.883 787.965 393.216 776.129 410.719 761.735C402.228 714.436 413.502 696.685 440.375 668.724C430.003 642.346 438.202 631.48 460.688 614.299C436.403 530.931 442.721 490.333 486.281 427.872C460.929 356.064 465.722 325.977 494 282.874C456.819 263.622 448.559 250.114 454.594 221.544C442.77 210.373 442.089 202.632 441.594 188.645C387.969 145.592 403 116.755 413.562 97.2595Z" fill="#6394D0"/>
<path d="M404.247 67.0903C390.839 44.1912 390.839 0 390.839 0H0V832H381.089C375.401 814.725 390.839 801.468 390.839 801.468C351.401 724.94 381.531 697.047 423.748 643.986C386.504 566.931 409.917 547.565 441.218 507.395C427.424 491.836 432.294 483.454 453 468.829C432.649 447.773 439.615 429.906 453 397.721C434.841 377.517 430.196 365.278 441.218 340.272C432.87 325.96 438.774 317.965 453 303.714C422.79 266.77 423.003 243.165 441.218 198.057C385.591 150.475 380.927 121.503 404.247 67.0903Z" fill="url(#paint0_linear_98_89)"/>
<defs>
<linearGradient id="paint0_linear_98_89" x1="226.5" y1="0" x2="226.5" y2="832" gradientUnits="userSpaceOnUse">
<stop stop-color="#0E5CAA"/>
<stop offset="0.935849" stop-color="#1A85EF"/>
</linearGradient>
</defs>
</svg>
