<svg width="504" height="832" viewBox="0 0 504 832" fill="none" xmlns="http://www.w3.org/2000/svg">
<path d="M72.6962 724.291C117.149 765.942 112.541 789.732 115.339 832H504V0H124.274C108.296 88.6747 83.4722 79.9761 48.7349 99.5799C60.9196 148.822 44.4982 150.015 27.6165 166.237C53.3309 229.531 29.6684 232.227 13.8082 259.721C24.2314 285.98 17.3837 295.056 4.46738 310.933C20.584 349.595 9.94254 350.886 0 362.552C25.3636 386.266 17.2054 395.524 7.71637 412.952C62.5522 493.134 43.2573 529.238 25.9919 596.666C73.1098 622.472 65.8437 643.589 59.2941 679.988C78.7744 689.541 75.2911 702.731 72.6962 724.291Z" fill="#91B1D8"/>
<path d="M92.949 735.625C117.795 773.068 118.505 794.233 118.387 832H504V0H127.271C121.455 44.0878 113.172 55.9379 95.7755 70.35C104.214 117.706 93.0093 135.478 66.2993 163.472C76.6083 189.882 68.459 200.761 46.1102 217.963C70.2475 301.432 63.9672 342.078 20.6719 404.614C45.8699 476.509 41.1063 506.632 13 549.787C49.9548 569.062 58.1646 582.586 52.1669 611.191C63.919 622.375 64.5959 630.125 65.088 644.129C118.387 687.234 103.447 716.106 92.949 735.625Z" fill="#6394D0"/>
<path d="M99.7534 764.91C113.161 787.809 113.161 832 113.161 832H504V0H122.911C128.599 17.2748 113.161 30.5321 113.161 30.5321C152.599 107.06 122.469 134.953 80.252 188.014C117.496 265.069 94.083 284.435 62.7821 324.605C76.5758 340.164 71.7055 348.546 51 363.171C71.3514 384.227 64.3847 402.094 51 434.279C69.1589 454.483 73.8043 466.722 62.7821 491.728C71.1304 506.04 65.2257 514.035 51 528.286C81.2102 565.23 80.9968 588.835 62.7821 633.943C118.409 681.525 123.073 710.497 99.7534 764.91Z" fill="url(#paint0_linear_111_89)"/>
<defs>
<linearGradient id="paint0_linear_111_89" x1="277.5" y1="832" x2="277.5" y2="0" gradientUnits="userSpaceOnUse">
<stop stop-color="#0E5CAA"/>
<stop offset="0.935849" stop-color="#1A85EF"/>
</linearGradient>
</defs>
</svg>
